<?xml version="1.0" standalone="no"?>
<!DOCTYPE svg PUBLIC "-//W3C//DTD SVG 20010904//EN"
 "http://www.w3.org/TR/2001/REC-SVG-20010904/DTD/svg10.dtd">
<svg version="1.0" xmlns="http://www.w3.org/2000/svg"
 width="96.000000pt" height="96.000000pt" viewBox="0 0 96.000000 96.000000"
 preserveAspectRatio="xMidYMid meet">

<g transform="translate(0.000000,96.000000) scale(0.100000,-0.100000)"
fill="#000000" stroke="none">
<path d="M265 855 l-25 -24 0 -271 0 -271 25 -24 24 -25 271 0 271 0 24 25 25
24 0 271 0 271 -25 24 -24 25 -271 0 -271 0 -24 -25z m535 -295 l0 -240 -240
0 -240 0 0 240 0 240 240 0 240 0 0 -240z"/>
<path d="M580 525 c-23 -30 -45 -55 -49 -55 -3 0 -19 15 -36 34 l-30 35 -53
-70 -53 -69 201 0 201 0 -67 88 c-37 48 -69 88 -70 90 0 1 -20 -22 -44 -53z"/>
<path d="M80 425 l0 -296 25 -24 24 -25 296 0 295 0 0 40 0 40 -280 0 -280 0
0 280 0 280 -40 0 -40 0 0 -295z"/>
</g>
</svg>
